<svg width="86" height="18" viewBox="0 0 86 18" fill="none" xmlns="http://www.w3.org/2000/svg">
<path d="M3.776 4.184C3.776 3.608 4.112 3.248 4.76 3.248C5.264 3.248 5.552 3.464 5.768 3.944L10.496 14.288C11.168 16.136 12.2 17.288 14.456 17.288C16.952 17.288 18.176 15.872 18.176 13.736V0.8H15.32V13.616C15.32 14.168 14.96 14.528 14.36 14.528C13.832 14.528 13.52 14.24 13.328 13.856L8.6 3.512C7.928 1.664 6.92 0.511999 4.664 0.511999C2.144 0.511999 0.944 1.928 0.944 4.04V17H3.776V4.184ZM27.7979 3.968C27.9659 3.584 28.2299 3.416 28.6139 3.416C28.9979 3.416 29.2619 3.584 29.4059 3.968L34.3259 17H37.4699L31.9979 2.6C31.4219 1.088 30.3179 0.511999 28.6379 0.511999C26.9339 0.511999 25.8299 1.088 25.2299 2.6L19.5419 17H22.6619L27.7979 3.968ZM47.087 3.968C47.255 3.584 47.519 3.416 47.903 3.416C48.287 3.416 48.551 3.584 48.695 3.968L53.615 17H56.759L51.287 2.6C50.711 1.088 49.607 0.511999 47.927 0.511999C46.223 0.511999 45.119 1.088 44.519 2.6L38.831 17H41.951L47.087 3.968ZM56.2273 0.8V3.632H60.9553V17H63.8113V3.632H68.5393V0.8H56.2273ZM76.2901 3.968C76.4581 3.584 76.7221 3.416 77.1061 3.416C77.4901 3.416 77.7541 3.584 77.8981 3.968L82.8181 17H85.9621L80.4901 2.6C79.9141 1.088 78.8101 0.511999 77.1301 0.511999C75.4261 0.511999 74.3221 1.088 73.7221 2.6L68.0341 17H71.1541L76.2901 3.968Z" fill="#7B7B7B"/>
</svg>
